<?xml version="1.0" encoding="utf-8"?>
<!-- Generator: Adobe Illustrator 16.0.0, SVG Export Plug-In . SVG Version: 6.00 Build 0)  -->
<!DOCTYPE svg PUBLIC "-//W3C//DTD SVG 1.1//EN" "http://www.w3.org/Graphics/SVG/1.1/DTD/svg11.dtd">
<svg version="1.1" id="vti" xmlns="http://www.w3.org/2000/svg" xmlns:xlink="http://www.w3.org/1999/xlink" x="0px" y="0px"
	 width="37.488px" height="60px" viewBox="0 0 37.488 60" enable-background="new 0 0 37.488 60" xml:space="preserve">
<path d="M18.763,8.032c1.737,0,3.148,1.414,3.148,3.149v7.846c0,1.737-1.411,3.149-3.148,3.149c-1.736,0-3.149-1.412-3.149-3.149
	v-7.846C15.614,9.445,17.027,8.032,18.763,8.032z M18.234,29.479L0,29.473V16.452C0,7.365,7.365,0,16.452,0h1.783L18.22,7.012
	c-2.063,0.267-3.664,2.035-3.664,4.169v7.846c0,2.14,1.607,3.91,3.674,4.172L18.234,29.479z M17.178,28.422l-0.003-4.378
	c-2.148-0.68-3.675-2.694-3.675-5.017v-7.846c0-2.317,1.522-4.33,3.666-5.012l0.011-5.113h-0.725
	c-8.489,0-15.396,6.906-15.396,15.396v11.965L17.178,28.422z M0,43.548C0,52.635,7.365,60,16.452,60h4.585
	c9.086,0,16.452-7.365,16.452-16.452V30.543L0,30.529V43.548z M21.037,0h-1.761v7.008c2.079,0.255,3.693,2.029,3.693,4.173v7.846
	c0,2.143-1.61,3.914-3.681,4.173l0.003,6.28l18.198,0.007V16.452C37.488,7.365,30.123,0,21.037,0z"/>
</svg>
