<?xml version="1.0" encoding="utf-8"?>
<!-- Generator: Adobe Illustrator 16.0.0, SVG Export Plug-In . SVG Version: 6.00 Build 0)  -->
<!DOCTYPE svg PUBLIC "-//W3C//DTD SVG 1.1//EN" "http://www.w3.org/Graphics/SVG/1.1/DTD/svg11.dtd">
<svg version="1.1" id="vti" xmlns="http://www.w3.org/2000/svg" xmlns:xlink="http://www.w3.org/1999/xlink" x="0px" y="0px"
	 width="34.994px" height="60px" viewBox="0 0 34.994 60" enable-background="new 0 0 34.994 60" xml:space="preserve">
<path d="M34.394,28.618L6.377,0.603C5.978,0.2,5.515,0,4.988,0c-0.517,0-0.979,0.2-1.38,0.603L0.601,3.607
	C0.201,4.009,0,4.47,0,4.991c0,0.521,0.2,0.98,0.601,1.383l23.629,23.628L0.601,53.63C0.201,54.03,0,54.49,0,55.01
	c0,0.521,0.2,0.984,0.601,1.385L3.608,59.4c0.4,0.4,0.863,0.601,1.38,0.601c0.524,0,0.989-0.2,1.389-0.601l28.017-28.019
	c0.399-0.399,0.601-0.858,0.601-1.38C34.994,29.481,34.793,29.018,34.394,28.618z"/>
</svg>
