<?xml version="1.0" encoding="utf-8"?>
<!-- Generator: Adobe Illustrator 16.0.0, SVG Export Plug-In . SVG Version: 6.00 Build 0)  -->
<!DOCTYPE svg PUBLIC "-//W3C//DTD SVG 1.1//EN" "http://www.w3.org/Graphics/SVG/1.1/DTD/svg11.dtd">
<svg version="1.1" id="vti" xmlns="http://www.w3.org/2000/svg" xmlns:xlink="http://www.w3.org/1999/xlink" x="0px" y="0px"
	 width="60.302px" height="60px" viewBox="0 0 60.302 60" enable-background="new 0 0 60.302 60" xml:space="preserve">
<path id="vti-info" fill-rule="evenodd" clip-rule="evenodd" d="M30.743,22.138c0.597-0.006,1.182,0.069,1.737,0.305
	c0.952,0.406,1.469,1.144,1.596,2.161c0.109,0.872-0.036,1.719-0.313,2.54c-0.31,0.917-0.664,1.822-1.01,2.728
	c-0.947,2.472-1.901,4.941-2.853,7.411c-0.231,0.603-0.477,1.199-0.698,1.805c-0.12,0.324-0.196,0.663-0.187,1.014
	c0.013,0.446,0.337,0.705,0.773,0.615c0.123-0.026,0.252-0.059,0.359-0.122c0.249-0.142,0.5-0.289,0.727-0.463
	c0.574-0.439,1.068-0.965,1.564-1.486c0.5-0.525,0.996-1.051,1.502-1.571c0.128-0.131,0.283-0.236,0.433-0.345
	c0.125-0.092,0.261-0.08,0.396-0.011c0.307,0.156,0.477,0.533,0.353,0.873c-0.096,0.26-0.227,0.512-0.376,0.746
	c-0.375,0.589-0.839,1.108-1.328,1.604c-1.488,1.503-3.155,2.763-5.058,3.698c-1.001,0.493-2.046,0.862-3.157,1.01
	c-0.808,0.108-1.612,0.12-2.392-0.162c-0.967-0.348-1.484-1.049-1.578-2.065c-0.068-0.718,0.058-1.419,0.213-2.115
	c0.363-1.623,0.943-3.174,1.578-4.706c1.238-2.984,2.477-5.967,3.716-8.951c0.091-0.218,0.159-0.441,0.148-0.681
	c-0.021-0.451-0.353-0.721-0.798-0.655c-0.433,0.065-0.796,0.281-1.14,0.532c-0.549,0.4-1.019,0.886-1.474,1.384
	c-0.474,0.52-0.937,1.051-1.418,1.564c-0.189,0.202-0.404,0.386-0.627,0.553c-0.237,0.179-0.455,0.164-0.683-0.003
	c-0.234-0.172-0.341-0.42-0.25-0.678c0.069-0.2,0.155-0.405,0.283-0.57c0.335-0.438,0.673-0.876,1.049-1.276
	c0.933-0.989,1.906-1.936,3.038-2.704c1.251-0.849,2.598-1.48,4.087-1.787C29.543,22.207,30.141,22.142,30.743,22.138z
	 M34.42,20.137c1.651-0.606,2.754-2.136,2.57-3.934c-0.113-1.101-0.637-1.949-1.628-2.46c-1.074-0.555-2.194-0.56-3.312-0.142
	c-1.6,0.599-2.767,2.157-2.568,3.96c0.117,1.051,0.591,1.879,1.528,2.408c0.573,0.323,1.2,0.439,1.877,0.442
	C33.398,20.41,33.917,20.323,34.42,20.137z M60.33,30.165c0,16.66-13.505,30.166-30.165,30.166C13.506,60.33,0,46.824,0,30.165
	C0,13.505,13.506,0,30.165,0C46.825,0,60.33,13.505,60.33,30.165z M30.165,2.544c-15.255,0-27.62,12.366-27.62,27.621
	c0,15.254,12.365,27.62,27.62,27.62s27.62-12.366,27.62-27.62C57.785,14.91,45.42,2.544,30.165,2.544z"/>
</svg>
