<?xml version="1.0" encoding="utf-8"?>
<!-- Generator: Adobe Illustrator 16.0.0, SVG Export Plug-In . SVG Version: 6.00 Build 0)  -->
<!DOCTYPE svg PUBLIC "-//W3C//DTD SVG 1.1//EN" "http://www.w3.org/Graphics/SVG/1.1/DTD/svg11.dtd">
<svg version="1.1" id="vti" xmlns="http://www.w3.org/2000/svg" xmlns:xlink="http://www.w3.org/1999/xlink" x="0px" y="0px"
	 width="34.993px" height="60px" viewBox="0 0 34.993 60" enable-background="new 0 0 34.993 60" xml:space="preserve">
<path d="M0,30.001c0,0.521,0.199,0.981,0.6,1.38L28.615,59.4c0.399,0.399,0.863,0.6,1.39,0.6c0.517,0,0.979-0.2,1.379-0.6
	l3.009-3.008c0.399-0.399,0.601-0.862,0.601-1.384c0-0.521-0.2-0.979-0.601-1.38l-23.63-23.628l23.63-23.628
	c0.399-0.403,0.601-0.863,0.601-1.383c0-0.521-0.2-0.981-0.601-1.384l-3.009-3.004C30.982,0.2,30.521,0,30.005,0
	c-0.524,0-0.989,0.2-1.39,0.603L0.6,28.619C0.199,29.018,0,29.48,0,30.001z"/>
</svg>
