<?xml version="1.0" encoding="utf-8"?>
<!-- Generator: Adobe Illustrator 16.0.0, SVG Export Plug-In . SVG Version: 6.00 Build 0)  -->
<!DOCTYPE svg PUBLIC "-//W3C//DTD SVG 1.1//EN" "http://www.w3.org/Graphics/SVG/1.1/DTD/svg11.dtd">
<svg version="1.1" id="vti" xmlns="http://www.w3.org/2000/svg" xmlns:xlink="http://www.w3.org/1999/xlink" x="0px" y="0px"
	 width="134.469px" height="60px" viewBox="0 0 134.469 60" enable-background="new 0 0 134.469 60" xml:space="preserve">
<path d="M22.343,12.852l-1.95-1.952c-0.261-0.262-0.562-0.392-0.899-0.392c-0.339,0-0.64,0.13-0.897,0.392L0.391,29.102
	C0.13,29.362,0,29.663,0,30.001s0.13,0.638,0.391,0.897l18.203,18.203c0.26,0.26,0.561,0.391,0.898,0.391
	c0.339,0,0.64-0.131,0.898-0.391l1.951-1.953c0.264-0.26,0.395-0.562,0.395-0.899s-0.131-0.638-0.395-0.897L6.993,30.001
	l15.35-15.352c0.265-0.262,0.394-0.561,0.394-0.899S22.605,13.113,22.343,12.852z M134.078,29.102L115.875,10.9
	c-0.26-0.262-0.561-0.392-0.902-0.392c-0.334,0-0.635,0.13-0.895,0.392l-1.955,1.952c-0.262,0.261-0.391,0.561-0.391,0.899
	s0.129,0.637,0.391,0.899l15.352,15.352l-15.352,15.352c-0.262,0.261-0.391,0.56-0.391,0.897s0.129,0.64,0.391,0.899l1.955,1.953
	c0.26,0.261,0.561,0.391,0.895,0.391c0.342,0,0.645-0.13,0.902-0.391L134.078,30.9c0.26-0.26,0.391-0.56,0.391-0.897
	S134.338,29.362,134.078,29.102z M52.547,12.187c-1.463-1.458-3.232-2.188-5.313-2.188c-2.084,0-3.854,0.73-5.317,2.188
	c-1.456,1.459-2.187,3.23-2.187,5.313s0.729,3.854,2.187,5.313C43.38,24.271,45.15,25,47.234,25c2.078,0,3.85-0.73,5.313-2.188
	c1.456-1.459,2.188-3.23,2.188-5.313C54.734,15.417,54.003,13.646,52.547,12.187z M78.482,16.25L58.48,36.249l-6.248-6.25
	L39.73,42.5v7.499h55V32.5L78.482,16.25z M99.359,5.371c0.246,0.248,0.375,0.54,0.375,0.878v47.499c0,0.34-0.129,0.632-0.375,0.88
	S98.818,55,98.484,55h-62.5c-0.342,0-0.637-0.123-0.883-0.371s-0.369-0.54-0.369-0.88V6.25c0-0.338,0.123-0.63,0.369-0.878
	C35.35,5.124,35.643,5,35.984,5h62.5C98.818,5,99.113,5.124,99.359,5.371z M102.895,1.835C101.67,0.612,100.201,0,98.484,0h-62.5
	c-1.723,0-3.192,0.612-4.416,1.835c-1.225,1.223-1.832,2.695-1.832,4.415v47.499c0,1.719,0.607,3.19,1.832,4.415
	C32.792,59.389,34.262,60,35.984,60h62.5c1.717,0,3.186-0.613,4.408-1.837c1.225-1.224,1.84-2.695,1.84-4.415V6.25
	C104.732,4.53,104.117,3.059,102.895,1.835z"/>
</svg>
