<?xml version="1.0" encoding="utf-8"?>
<!-- Generator: Adobe Illustrator 16.0.0, SVG Export Plug-In . SVG Version: 6.00 Build 0)  -->
<!DOCTYPE svg PUBLIC "-//W3C//DTD SVG 1.1//EN" "http://www.w3.org/Graphics/SVG/1.1/DTD/svg11.dtd">
<svg version="1.1" id="vti" xmlns="http://www.w3.org/2000/svg" xmlns:xlink="http://www.w3.org/1999/xlink" x="0px" y="0px"
	 width="70px" height="60px" viewBox="0 0 70 60" enable-background="new 0 0 70 60" xml:space="preserve">
<path id="window-close" d="M49.102,21.602l-5.703-5.703c-0.261-0.26-0.56-0.391-0.898-0.391s-0.638,0.13-0.898,0.391L35,22.5
	l-6.602-6.602c-0.261-0.26-0.56-0.391-0.898-0.391s-0.638,0.13-0.898,0.391l-5.703,5.703c-0.261,0.26-0.391,0.56-0.391,0.898
	s0.13,0.638,0.391,0.898L27.5,30l-6.602,6.602c-0.261,0.26-0.391,0.56-0.391,0.898s0.13,0.638,0.391,0.898l5.703,5.703
	c0.261,0.26,0.56,0.391,0.898,0.391s0.638-0.13,0.898-0.391L35,37.5l6.602,6.602c0.261,0.26,0.56,0.391,0.898,0.391
	s0.638-0.13,0.898-0.391l5.703-5.703c0.261-0.26,0.391-0.56,0.391-0.898s-0.13-0.638-0.391-0.898L42.5,30l6.602-6.602
	c0.261-0.26,0.391-0.56,0.391-0.898S49.362,21.862,49.102,21.602z M10,10h50v40H10V10z M70,53.75V6.25
	c0-1.719-0.612-3.19-1.836-4.414S65.469,0,63.75,0H6.25C4.531,0,3.06,0.612,1.836,1.836S0,4.531,0,6.25v47.5
	c0,1.719,0.612,3.19,1.836,4.414S4.531,60,6.25,60h57.5c1.719,0,3.19-0.612,4.414-1.836S70,55.469,70,53.75z"/>
</svg>
