<?xml version="1.0" encoding="utf-8"?>
<!-- Generator: Adobe Illustrator 16.0.0, SVG Export Plug-In . SVG Version: 6.00 Build 0)  -->
<!DOCTYPE svg PUBLIC "-//W3C//DTD SVG 1.1//EN" "http://www.w3.org/Graphics/SVG/1.1/DTD/svg11.dtd">
<svg version="1.1" id="vti" xmlns="http://www.w3.org/2000/svg" xmlns:xlink="http://www.w3.org/1999/xlink" x="0px" y="0px"
	 width="85.337px" height="60px" viewBox="0 0 85.337 60" enable-background="new 0 0 85.337 60" xml:space="preserve">
<path id="play" d="M33.859,17.096L56.91,29.144L33.859,41.048V17.096z M12.813,0.856c-0.033,0-0.304,0.025-0.813,0.073
	c-0.508,0.048-0.87,0.094-1.091,0.142c-0.226,0.048-0.597,0.119-1.121,0.215C9.27,1.381,8.813,1.508,8.436,1.667
	C8.052,1.825,7.609,2.031,7.102,2.286c-0.509,0.254-1,0.564-1.479,0.929C5.146,3.579,4.686,4,4.243,4.477L3.576,5.286
	c-0.445,0.54-0.954,1.517-1.524,2.929c-0.571,1.413-0.967,2.992-1.192,4.738c-0.6,4.604-0.887,9.206-0.857,13.811v6.475v1.905
	c0.034,1.301,0.121,3.103,0.268,5.404c0.143,2.303,0.342,4.469,0.592,6.5c0.226,1.746,0.642,3.348,1.263,4.809
	s1.079,2.39,1.379,2.787c0.306,0.396,0.552,0.69,0.742,0.879c0.758,0.795,1.657,1.446,2.69,1.955c1.029,0.506,1.842,0.84,2.426,1
	c0.588,0.157,1.453,0.316,2.597,0.475l1.712,0.191l2.333,0.189c1.524,0.096,4.709,0.214,9.552,0.355
	c4.842,0.145,10.549,0.248,17.115,0.312c11.94,0,21.892-0.302,29.858-0.903c0.033,0,0.296-0.025,0.787-0.074
	c0.492-0.045,0.854-0.094,1.097-0.142c0.237-0.048,0.616-0.118,1.142-0.215c0.524-0.097,0.975-0.224,1.358-0.381
	c0.379-0.159,0.823-0.356,1.333-0.597c0.508-0.236,1-0.539,1.475-0.903c0.477-0.365,0.938-0.786,1.385-1.263l0.666-0.81
	c0.441-0.54,0.949-1.517,1.521-2.929c0.57-1.413,0.971-2.992,1.191-4.738c0.604-4.604,0.888-9.206,0.854-13.811v-6.476v-1.906
	c-0.029-1.3-0.117-3.102-0.259-5.404c-0.142-2.302-0.343-4.469-0.597-6.5c-0.221-1.746-0.646-3.348-1.262-4.809
	c-0.617-1.46-1.08-2.389-1.384-2.787c-0.3-0.396-0.546-0.69-0.733-0.879C80.655,4,80.192,3.579,79.718,3.214
	c-0.475-0.364-0.967-0.675-1.475-0.929c-0.51-0.254-0.954-0.46-1.333-0.619c-0.384-0.158-0.834-0.285-1.358-0.381
	c-0.525-0.096-0.896-0.167-1.117-0.215c-0.225-0.048-0.592-0.094-1.1-0.142c-0.509-0.048-0.775-0.073-0.809-0.073l-3.476-0.19
	c-2.317-0.158-5.959-0.31-10.93-0.452C53.155,0.071,48.001,0,42.668,0C30.734,0,20.779,0.286,12.813,0.856z"/>
</svg>
