<?xml version="1.0" encoding="utf-8"?>
<!-- Generator: Adobe Illustrator 16.0.0, SVG Export Plug-In . SVG Version: 6.00 Build 0)  -->
<!DOCTYPE svg PUBLIC "-//W3C//DTD SVG 1.1//EN" "http://www.w3.org/Graphics/SVG/1.1/DTD/svg11.dtd">
<svg version="1.1" id="vti" xmlns="http://www.w3.org/2000/svg" xmlns:xlink="http://www.w3.org/1999/xlink" x="0px" y="0px"
	 width="37.488px" height="60px" viewBox="0 0 37.488 60" enable-background="new 0 0 37.488 60" xml:space="preserve">
<path d="M18.763,8.032c1.737,0,3.148,1.414,3.148,3.149v7.846c0,1.737-1.411,3.149-3.148,3.149c-1.736,0-3.149-1.412-3.149-3.149
	v-7.846C15.613,9.445,17.027,8.032,18.763,8.032z M0,43.548C0,52.635,7.365,60,16.451,60h4.585c9.086,0,16.452-7.365,16.452-16.452
	V30.543L0,30.529V43.548z M37.488,16.452v13.036L19.29,29.48l-0.003-6.28c2.071-0.259,3.681-2.03,3.681-4.173v-7.846
	c0-2.145-1.614-3.918-3.693-4.173V0h1.761C30.123,0,37.488,7.365,37.488,16.452z M36.432,16.452c0-8.489-6.907-15.396-15.396-15.396
	h-0.705v5.103c2.159,0.674,3.693,2.69,3.693,5.022v7.846c0,2.327-1.529,4.342-3.681,5.02l0.002,4.378l16.086,0.006V16.452z
	 M18.229,23.199c-2.067-0.262-3.674-2.032-3.674-4.172v-7.846c0-2.134,1.601-3.902,3.664-4.169L18.234,0h-1.783
	C7.365,0,0,7.365,0,16.452v13.021l18.234,0.006L18.229,23.199z"/>
</svg>
