<?xml version="1.0" encoding="utf-8"?>
<!-- Generator: Adobe Illustrator 16.0.0, SVG Export Plug-In . SVG Version: 6.00 Build 0)  -->
<!DOCTYPE svg PUBLIC "-//W3C//DTD SVG 1.1//EN" "http://www.w3.org/Graphics/SVG/1.1/DTD/svg11.dtd">
<svg version="1.1" id="vti" xmlns="http://www.w3.org/2000/svg" xmlns:xlink="http://www.w3.org/1999/xlink" x="0px" y="0px"
	 width="124.761px" height="60px" viewBox="0 0 124.761 60" enable-background="new 0 0 124.761 60" xml:space="preserve">
<path id="vti-360" d="M124.761,32.162c0,8.676-18.268,16.021-43.479,18.51V44.38c20.992-2.08,35.973-7.515,35.973-13.896
	c0-3.972-5.813-7.732-15.258-10.552v-2.768C115.896,20.728,124.761,26.12,124.761,32.162z M64.435,45.263
	c-0.682,0.007-1.366,0.018-2.053,0.018c-30.308,0-54.875-6.623-54.875-14.793c0-4.33,6.893-8.41,17.885-11.292v-2.667
	C9.99,20.063,0,25.75,0,32.162C0,42.891,27.93,51.58,62.382,51.58c0.685,0,1.371-0.008,2.053-0.013V60l11.855-11.855L64.435,36.29
	V45.263z M35.835,25.645c-2.382,0-3.97-1.172-5.518-2.717l-4.263,4.43c1.627,2.423,5.768,4.725,9.738,4.725
	c5.645,0,11.58-3.01,11.58-9.194c0-3.76-2.553-5.893-3.888-6.855c1.087-0.837,3.092-2.465,3.092-5.307
	c0-5.35-3.845-8.86-10.657-8.86c-3.803,0-7.44,2.34-8.945,3.97l4.055,4.89c1.462-1.547,3.303-2.507,4.893-2.507
	c1.755,0,3.678,1.045,3.678,3.3c0,1.88-1.545,2.882-3.553,2.882h-3.05v4.975h3.135c2.09,0,3.47,0.792,3.47,3.05
	C39.597,24.515,38.177,25.645,35.835,25.645z M48.663,18.83C48.54,13.27,49.96,2.195,60.953,1.86
	c2.801-0.083,7.395,1.212,9.865,3.303l-2.846,5.432c-1.416-0.837-3.553-2.135-6.1-2.135c-3.093,0.085-5.055,2.593-5.475,5.685
	c1.087-1.085,3.26-2.045,5.475-2.132c5.354-0.208,9.783,3.637,9.783,9.322c0,5.6-4.01,10.365-10.828,10.572
	C53.975,32.123,48.915,27.192,48.663,18.83L48.663,18.83z M56.48,20.42c0,2.09,1.212,4.933,3.885,4.933
	c2.135,0,3.848-1.59,3.805-3.595c-0.041-1.632-0.875-3.762-3.385-3.72C58.822,18.123,57.147,19.583,56.48,20.42L56.48,20.42z
	 M84.9,32.037c-6.98,0-11.994-4.972-11.994-15.252c0-8.863,4.848-15.005,11.785-15.005c8.191,0,11.996,6.057,11.996,15.297
	C96.687,26.353,92.466,32.037,84.9,32.037z M84.9,25.56c1.926,0,3.385-3.385,3.385-8.482c0-4.973-1.59-8.57-3.635-8.57
	c-1.547-0.042-3.469,3.178-3.469,8.28C81.181,22.175,83.228,25.56,84.9,25.56z M97.406,5.368c0-2.962,2.402-5.368,5.369-5.368
	c2.969,0,5.367,2.402,5.367,5.368c0,2.965-2.398,5.37-5.367,5.37C99.808,10.737,97.406,8.333,97.406,5.368z M99.943,5.368
	c0,1.563,1.268,2.833,2.83,2.833s2.83-1.27,2.83-2.833s-1.268-2.828-2.83-2.828S99.943,3.808,99.943,5.368z"/>
</svg>
