<?xml version="1.0" encoding="utf-8"?>
<!-- Generator: Adobe Illustrator 16.0.0, SVG Export Plug-In . SVG Version: 6.00 Build 0)  -->
<!DOCTYPE svg PUBLIC "-//W3C//DTD SVG 1.1//EN" "http://www.w3.org/Graphics/SVG/1.1/DTD/svg11.dtd">
<svg version="1.1" id="vti" xmlns="http://www.w3.org/2000/svg" xmlns:xlink="http://www.w3.org/1999/xlink" x="0px" y="0px"
	 width="37.488px" height="60px" viewBox="0 0 37.488 60" enable-background="new 0 0 37.488 60" xml:space="preserve">
<path d="M15.614,11.181v7.846c0,1.737,1.414,3.149,3.149,3.149c1.737,0,3.148-1.412,3.148-3.149v-7.846
	c0-1.736-1.411-3.149-3.148-3.149C17.027,8.032,15.614,9.445,15.614,11.181z M16.67,11.181c0-1.154,0.939-2.093,2.093-2.093
	c1.153,0,2.092,0.939,2.092,2.093v7.846c0,1.154-0.938,2.093-2.092,2.093c-1.154,0-2.093-0.939-2.093-2.093V11.181z M18.23,23.199
	c-2.067-0.262-3.674-2.032-3.674-4.172v-7.846c0-2.134,1.601-3.902,3.664-4.169L18.234,0h-1.783C7.365,0,0,7.365,0,16.452v13.021
	l18.234,0.006L18.23,23.199z M1.056,28.417V16.452c0-8.489,6.906-15.396,15.396-15.396h0.725l-0.011,5.113
	C15.022,6.852,13.5,8.864,13.5,11.181v7.846c0,2.323,1.526,4.337,3.675,5.017l0.003,4.378L1.056,28.417z M21.037,0h-1.761v7.008
	c2.079,0.255,3.693,2.029,3.693,4.173v7.846c0,2.143-1.61,3.914-3.681,4.173l0.003,6.28l18.198,0.007V16.452
	C37.488,7.365,30.123,0,21.037,0z M36.432,28.431l-16.086-0.006l-0.002-4.378c2.152-0.678,3.681-2.693,3.681-5.02v-7.846
	c0-2.332-1.534-4.348-3.693-5.022V1.056h0.705c8.489,0,15.396,6.906,15.396,15.396V28.431z M0,43.548C0,52.635,7.365,60,16.452,60
	h4.585c9.086,0,16.452-7.365,16.452-16.452V30.543L0,30.529V43.548z M1.056,31.585l35.376,0.014v11.949
	c0,8.489-6.906,15.396-15.396,15.396h-4.585c-8.489,0-15.396-6.906-15.396-15.396V31.585z"/>
</svg>
