<?xml version="1.0" encoding="utf-8"?>
<!-- Generator: Adobe Illustrator 16.0.0, SVG Export Plug-In . SVG Version: 6.00 Build 0)  -->
<!DOCTYPE svg PUBLIC "-//W3C//DTD SVG 1.1//EN" "http://www.w3.org/Graphics/SVG/1.1/DTD/svg11.dtd">
<svg version="1.1" id="vti" xmlns="http://www.w3.org/2000/svg" xmlns:xlink="http://www.w3.org/1999/xlink" x="0px" y="0px"
	 width="85.335px" height="60px" viewBox="0 0 85.335 60" enable-background="new 0 0 85.335 60" xml:space="preserve">
<path d="M12.811,0.856c-0.032,0-0.303,0.025-0.813,0.073c-0.508,0.048-0.87,0.094-1.091,0.142c-0.226,0.048-0.597,0.119-1.121,0.215
	C9.266,1.382,8.811,1.509,8.432,1.667C8.049,1.826,7.607,2.032,7.1,2.286C6.59,2.54,6.1,2.85,5.62,3.215
	C5.145,3.58,4.682,4.001,4.241,4.478L3.574,5.287C3.129,5.827,2.62,6.804,2.051,8.216c-0.572,1.413-0.968,2.992-1.192,4.738
	C0.258,17.558-0.029,22.16,0,26.765v6.475v1.906c0.034,1.299,0.121,3.102,0.268,5.403c0.143,2.302,0.342,4.47,0.592,6.5
	c0.226,1.746,0.642,3.349,1.263,4.81s1.079,2.389,1.379,2.787c0.306,0.396,0.552,0.689,0.742,0.879
	c0.758,0.793,1.658,1.445,2.69,1.953c1.029,0.506,1.843,0.84,2.426,1c0.588,0.158,1.453,0.317,2.597,0.476l1.712,0.19l2.333,0.19
	c1.525,0.097,4.709,0.214,9.552,0.356c4.842,0.144,10.549,0.248,17.115,0.311c11.941,0,21.893-0.302,29.858-0.904
	c0.032,0,0.296-0.024,0.786-0.072c0.492-0.047,0.854-0.094,1.098-0.143c0.236-0.048,0.616-0.119,1.143-0.215
	c0.523-0.096,0.975-0.223,1.357-0.381c0.379-0.159,0.824-0.355,1.333-0.596c0.508-0.237,1-0.541,1.476-0.904
	c0.476-0.365,0.938-0.786,1.383-1.264l0.668-0.809c0.44-0.54,0.949-1.517,1.521-2.929c0.57-1.413,0.972-2.992,1.19-4.738
	c0.604-4.604,0.889-9.206,0.854-13.812v-6.475v-1.906c-0.028-1.3-0.116-3.102-0.259-5.404c-0.143-2.302-0.342-4.469-0.596-6.5
	c-0.221-1.746-0.646-3.348-1.264-4.809c-0.615-1.46-1.078-2.389-1.383-2.787c-0.3-0.396-0.546-0.69-0.732-0.879
	C80.655,4,80.193,3.579,79.717,3.214c-0.475-0.364-0.967-0.675-1.475-0.929c-0.509-0.254-0.954-0.46-1.333-0.619
	c-0.384-0.158-0.834-0.285-1.358-0.381c-0.524-0.096-0.896-0.167-1.117-0.215c-0.225-0.048-0.592-0.094-1.1-0.142
	c-0.509-0.048-0.775-0.073-0.809-0.073l-3.475-0.19c-2.317-0.158-5.959-0.31-10.931-0.452C53.153,0.071,47.999,0,42.666,0
	C30.732,0,20.778,0.286,12.811,0.856z M42.672,59c-6.508-0.063-12.258-0.167-17.093-0.311c-4.81-0.141-8.011-0.26-9.519-0.354
	l-2.313-0.188l-1.683-0.188c-1.068-0.147-1.9-0.3-2.447-0.446c-0.357-0.099-1.043-0.342-2.243-0.933
	c-0.928-0.457-1.737-1.044-2.409-1.747c-0.171-0.169-0.391-0.432-0.673-0.799c-0.133-0.176-0.479-0.755-1.252-2.568
	c-0.575-1.354-0.976-2.883-1.19-4.545c-0.25-2.033-0.446-4.199-0.584-6.434c-0.143-2.221-0.23-4.026-0.267-5.369v-8.354
	c-0.028-4.536,0.259-9.137,0.851-13.682c0.215-1.661,0.595-3.172,1.127-4.492c0.66-1.633,1.108-2.352,1.369-2.667l0.668-0.809
	C5.368,4.733,5.79,4.346,6.23,4.009c0.431-0.327,0.875-0.606,1.316-0.827c0.483-0.243,0.904-0.439,1.27-0.59
	c0.313-0.13,0.697-0.238,1.152-0.321c0.537-0.098,0.916-0.171,1.146-0.22c0.201-0.043,0.525-0.082,0.979-0.124
	c0.438-0.042,0.691-0.065,0.762-0.069C20.791,1.287,30.811,1,42.666,1C47.99,1,53.18,1.072,58.092,1.214
	c4.902,0.14,8.566,0.292,10.891,0.45l3.488,0.191c0.08,0.005,0.33,0.029,0.77,0.07c0.455,0.043,0.784,0.081,0.984,0.124
	c0.224,0.048,0.604,0.122,1.146,0.221c0.448,0.082,0.838,0.19,1.157,0.321c0.356,0.149,0.78,0.347,1.267,0.589
	c0.447,0.223,0.889,0.502,1.313,0.828C79.54,4.34,79.965,4.727,80.37,5.16c0.13,0.131,0.331,0.357,0.667,0.8
	c0.118,0.155,0.473,0.709,1.26,2.572c0.584,1.383,0.984,2.913,1.19,4.545c0.253,2.025,0.452,4.191,0.59,6.436
	c0.146,2.353,0.229,4.108,0.257,5.365v8.358c0.033,4.555-0.252,9.154-0.846,13.68c-0.208,1.646-0.587,3.156-1.128,4.494
	c-0.66,1.633-1.106,2.354-1.367,2.67l-0.664,0.806c-0.364,0.386-0.789,0.774-1.221,1.105c-0.418,0.319-0.853,0.586-1.29,0.792
	c-0.496,0.234-0.928,0.426-1.297,0.58c-0.313,0.129-0.702,0.238-1.15,0.318c-0.533,0.099-0.919,0.17-1.158,0.219
	c-0.218,0.043-0.547,0.084-0.992,0.125c-0.426,0.043-0.67,0.065-0.74,0.07C64.535,58.697,54.516,59,42.672,59z M33.857,17.096
	l23.051,12.048L33.857,41.048V17.096z M32.857,42.689l26.22-13.541l-26.22-13.704V42.689z"/>
</svg>
