<?xml version="1.0" encoding="utf-8"?>
<!-- Generator: Adobe Illustrator 16.0.0, SVG Export Plug-In . SVG Version: 6.00 Build 0)  -->
<!DOCTYPE svg PUBLIC "-//W3C//DTD SVG 1.1//EN" "http://www.w3.org/Graphics/SVG/1.1/DTD/svg11.dtd">
<svg version="1.1" id="vti" xmlns="http://www.w3.org/2000/svg" xmlns:xlink="http://www.w3.org/1999/xlink" x="0px" y="0px"
	 width="37.488px" height="60px" viewBox="0 0 37.488 60" enable-background="new 0 0 37.488 60" xml:space="preserve">
<path d="M18.763,22.176c-1.736,0-3.149-1.412-3.149-3.149v-7.846c0-1.736,1.414-3.149,3.149-3.149c1.737,0,3.148,1.414,3.148,3.149
	v7.846C21.911,20.764,20.5,22.176,18.763,22.176z M0,43.548C0,52.635,7.365,60,16.452,60h4.585c9.086,0,16.452-7.365,16.452-16.452
	V30.543L0,30.529V43.548z M19.276,0v7.008c2.079,0.255,3.693,2.029,3.693,4.173v7.846c0,2.143-1.61,3.914-3.681,4.173l0.003,6.28
	l18.198,0.007V16.452C37.488,7.365,30.123,0,21.037,0H19.276z M16.452,0C7.365,0,0,7.365,0,16.452v13.021l18.234,0.006l-0.004-6.28
	c-2.067-0.262-3.674-2.032-3.674-4.172v-7.846c0-2.134,1.601-3.902,3.664-4.169L18.234,0H16.452z"/>
</svg>
