<?xml version="1.0" encoding="utf-8"?>
<!-- Generator: Adobe Illustrator 16.0.0, SVG Export Plug-In . SVG Version: 6.00 Build 0)  -->
<!DOCTYPE svg PUBLIC "-//W3C//DTD SVG 1.1//EN" "http://www.w3.org/Graphics/SVG/1.1/DTD/svg11.dtd">
<svg version="1.1" id="vti" xmlns="http://www.w3.org/2000/svg" xmlns:xlink="http://www.w3.org/1999/xlink" x="0px" y="0px"
	 width="75.396px" height="60px" viewBox="0 0 75.396 60" enable-background="new 0 0 75.396 60" xml:space="preserve">
<path id="home_1_" d="M64.587,34.277L37.694,12.113L10.81,34.277c0,0.033-0.01,0.078-0.025,0.143
	c-0.014,0.063-0.021,0.107-0.021,0.139v22.449c0,0.809,0.295,1.512,0.883,2.104c0.602,0.593,1.299,0.89,2.109,0.89h17.959V42.042
	h11.969V60H61.64c0.813,0,1.512-0.297,2.105-0.891c0.596-0.59,0.889-1.293,0.889-2.103V34.559
	C64.634,34.434,64.622,34.341,64.587,34.277z M75.39,30.232c-0.031-0.42-0.205-0.754-0.516-1.003l-10.24-8.511V1.637
	c0-0.437-0.141-0.797-0.422-1.077c-0.279-0.28-0.639-0.419-1.072-0.419h-8.98c-0.439,0-0.795,0.14-1.076,0.419
	c-0.281,0.28-0.418,0.64-0.418,1.077v9.119l-11.412-9.54C40.253,0.405,39.069,0,37.694,0c-1.369,0-2.553,0.405-3.551,1.216
	L0.519,29.229c-0.313,0.25-0.482,0.583-0.514,1.003c-0.031,0.422,0.08,0.788,0.328,1.099l2.898,3.461
	c0.248,0.281,0.572,0.453,0.984,0.515c0.371,0.029,0.742-0.078,1.121-0.328l32.357-26.98l32.365,26.98
	c0.25,0.221,0.574,0.328,0.982,0.328h0.139c0.404-0.062,0.732-0.233,0.98-0.515l2.9-3.461C75.308,31.02,75.425,30.655,75.39,30.232z
	"/>
</svg>
